<?xml version="1.0" standalone="no"?><!DOCTYPE svg PUBLIC "-//W3C//DTD SVG 1.1//EN" "http://www.w3.org/Graphics/SVG/1.1/DTD/svg11.dtd"><svg t="1626499951874" class="icon" viewBox="0 0 1024 1024" version="1.1" xmlns="http://www.w3.org/2000/svg" p-id="1590" xmlns:xlink="http://www.w3.org/1999/xlink" width="200" height="200"><defs><style type="text/css"></style></defs><path transform="rotate(90,512 512)" d="M481.693137 12.219655L67.088928 424.666914A72.225787 72.225787 0 0 0 42.059767 469.364896a44.591202 44.591202 0 0 0 42.711879 44.847473h256.271274v462.82592a46.70544 46.70544 0 0 0 42.711879 46.983067h256.271274a46.70544 46.70544 0 0 0 42.711879-46.983067V514.212369h256.271274a44.591202 44.591202 0 0 0 42.711879-44.847473 68.189515 68.189515 0 0 0-25.029162-43.651541L542.087734 12.710842a42.840015 42.840015 0 0 0-60.394597-0.491187zM835.90275 429.237085H597.314194v509.958479h-170.847516V429.237085H187.878122L511.890436 106.911891z" p-id="1591"></path></svg>