<?xml version="1.0" standalone="no"?><!DOCTYPE svg PUBLIC "-//W3C//DTD SVG 1.1//EN" "http://www.w3.org/Graphics/SVG/1.1/DTD/svg11.dtd"><svg t="1626500033708" class="icon" viewBox="0 0 1024 1024" version="1.1" xmlns="http://www.w3.org/2000/svg" p-id="1730" xmlns:xlink="http://www.w3.org/1999/xlink" width="200" height="200"><defs><style type="text/css"></style></defs><path d="M1011.556887 557.383271l-1.874989 1.917603a42.187266 42.187266 0 0 1-59.232626 0l-12.78402-12.570953v391.830212h42.6134a42.6134 42.6134 0 0 1 42.6134 42.6134v42.6134h-1022.721598v-42.6134a42.6134 42.6134 0 0 1 42.6134-42.6134h42.613399V548.22139l-11.207324 11.079484a41.888972 41.888972 0 0 1-58.998252 0l-1.896296-1.917603a41.739825 41.739825 0 0 1 0-59.019559l114.715272-114.630046V128.905535a42.6134 42.6134 0 0 1-42.6134-42.6134v-42.6134a42.6134 42.6134 0 0 1 42.6134-42.6134h170.4536a42.6134 42.6134 0 0 1 42.6134 42.6134v42.6134a42.6134 42.6134 0 0 1-42.6134 42.6134v84.374532l213.067-213.067 500.004328 498.150645a41.611985 41.611985 0 0 1 0.021306 59.019559zM298.48556 938.560133h127.840199v-127.8402h-42.613399v-42.6134h42.613399v-127.840199h-127.840199v298.293799z m-127.8402-597.439867l85.2268-85.226799V128.905535h-85.2268v212.214731z m127.8402-297.441531h-170.4536v42.6134h170.4536v-42.6134z m553.974199 418.037453l-340.9072-339.628797-340.907199 340.907199v475.565543h85.2268v-340.907199h213.066999v340.907199h383.5206V461.716188z m-85.2268 221.163546h-213.067v-213.067h213.067v213.067z m-127.8402-170.4536h-42.6134v127.8402h42.6134v-127.8402z m85.2268 0h-42.6134v127.8402h42.6134v-127.8402z" p-id="1731"></path></svg>