<?xml version="1.0" standalone="no"?><!DOCTYPE svg PUBLIC "-//W3C//DTD SVG 1.1//EN" "http://www.w3.org/Graphics/SVG/1.1/DTD/svg11.dtd"><svg t="1626499860634" class="icon" viewBox="0 0 1024 1024" version="1.1" xmlns="http://www.w3.org/2000/svg" p-id="1449" data-spm-anchor-id="a313x.7781069.0.i1" xmlns:xlink="http://www.w3.org/1999/xlink" width="200" height="200"><defs><style type="text/css"></style></defs><path d="M542.066879 1011.780855l414.586916-412.430057A72.222775 72.222775 0 0 0 981.681912 554.654681a44.589342 44.589342 0 0 0-42.710097-44.845602H682.71123V47.002462a46.703492 46.703492 0 0 0-42.710098-46.981107H383.740547a46.703492 46.703492 0 0 0-42.710097 46.981107v462.806617H84.769865a44.589342 44.589342 0 0 0-42.710098 44.845602 68.186671 68.186671 0 0 0 25.028117 43.64972l414.586917 412.985288a42.838228 42.838228 0 0 0 60.392078 0.491166zM187.87204 594.780818H426.450645V84.843609h170.84039v509.851789h238.578604L511.87084 917.092569z" p-id="1450" data-spm-anchor-id="a313x.7781069.0.i0"></path></svg>